HIERARCHY
ROOT Hips
{
	OFFSET 0.000000 0.000000 0.000000
	CHANNELS 6 Xposition Yposition Zposition Zrotation Yrotation Xrotation 
	JOINT LHipJoint
	{
		OFFSET 0.000000 0.000000 0.000000
		CHANNELS 3 Zrotation Yrotation Xrotation
		JOINT LeftUpLeg
		{
			OFFSET 1.363060 -1.794630 0.839290
			CHANNELS 3 Zrotation Yrotation Xrotation
			JOINT LeftLeg
			{
				OFFSET 2.448110 -6.726130 0.000000
				CHANNELS 3 Zrotation Yrotation Xrotation
				JOINT LeftFoot
				{
					OFFSET 2.562200 -7.039590 0.000000
					CHANNELS 3 Zrotation Yrotation Xrotation
					JOINT LeftToeBase
					{
						OFFSET 0.157640 -0.433110 2.322550
						CHANNELS 3 Zrotation Yrotation Xrotation
						End Site
						{
							OFFSET 0.000000 0.000000 0.000000
						}
					}
				}
			}
		}
	}
	JOINT RHipJoint
	{
		OFFSET 0.000000 0.000000 0.000000
		CHANNELS 3 Zrotation Yrotation Xrotation
		JOINT RightUpLeg
		{
			OFFSET -1.305520 -1.794630 0.839290
			CHANNELS 3 Zrotation Yrotation Xrotation
			JOINT RightLeg
			{
				OFFSET -2.542530 -6.985550 0.000000
				CHANNELS 3 Zrotation Yrotation Xrotation
				JOINT RightFoot
				{
					OFFSET -2.568260 -7.056230 0.000000
					CHANNELS 3 Zrotation Yrotation Xrotation
					JOINT RightToeBase
					{
						OFFSET -0.164730 -0.452590 2.363150
						CHANNELS 3 Zrotation Yrotation Xrotation
						End Site
						{
							OFFSET 0.000000 0.000000 0.000000
						}
					}
				}
			}
		}
	}
	JOINT LowerBack
	{
		OFFSET 0.000000 0.000000 0.000000
		CHANNELS 3 Zrotation Yrotation Xrotation
		JOINT Spine
		{
			OFFSET 0.028270 2.035590 -0.193380
			CHANNELS 3 Zrotation Yrotation Xrotation
			JOINT Spine1
			{
				OFFSET 0.056720 2.048850 -0.042750
				CHANNELS 3 Zrotation Yrotation Xrotation
				JOINT Neck
				{
					OFFSET 0.000000 0.000000 0.000000
					CHANNELS 3 Zrotation Yrotation Xrotation
					JOINT Neck1
					{
						OFFSET -0.054170 1.746240 0.172020
						CHANNELS 3 Zrotation Yrotation Xrotation
						JOINT Head
						{
							OFFSET 0.104070 1.761360 -0.123970
							CHANNELS 3 Zrotation Yrotation Xrotation
							End Site
							{
								OFFSET 0.000000 0.000000 0.000000
							}
						}
					}
				}
				JOINT LeftShoulder
				{
					OFFSET 0.000000 0.000000 0.000000
					CHANNELS 3 Zrotation Yrotation Xrotation
					JOINT LeftArm
					{
						OFFSET 3.362410 1.200890 -0.311210
						CHANNELS 3 Zrotation Yrotation Xrotation
						JOINT LeftForeArm
						{
							OFFSET 4.983000 -0.000000 -0.000000
							CHANNELS 3 Zrotation Yrotation Xrotation
							JOINT LeftHand
							{
								OFFSET 3.483560 -0.000000 -0.000000
								CHANNELS 3 Zrotation Yrotation Xrotation
								JOINT LeftFingerBase
								{
									OFFSET 0.000000 0.000000 0.000000
									CHANNELS 3 Zrotation Yrotation Xrotation
									JOINT LeftHandIndex1
									{
										OFFSET 0.715260 -0.000000 -0.000000
										CHANNELS 3 Zrotation Yrotation Xrotation
										End Site
										{
											OFFSET 0.000000 0.000000 0.000000
										}
									}
								}
								JOINT LThumb
								{
									OFFSET 0.000000 0.000000 0.000000
									CHANNELS 3 Zrotation Yrotation Xrotation
									End Site
									{
										OFFSET 0.000000 0.000000 0.000000
									}
								}
							}
						}
					}
				}
				JOINT RightShoulder
				{
					OFFSET 0.000000 0.000000 0.000000
					CHANNELS 3 Zrotation Yrotation Xrotation
					JOINT RightArm
					{
						OFFSET -3.136600 1.374050 -0.404650
						CHANNELS 3 Zrotation Yrotation Xrotation
						JOINT RightForeArm
						{
							OFFSET -5.241900 -0.000000 -0.000000
							CHANNELS 3 Zrotation Yrotation Xrotation
							JOINT RightHand
							{
								OFFSET -3.444170 -0.000000 -0.000000
								CHANNELS 3 Zrotation Yrotation Xrotation
								JOINT RightFingerBase
								{
									OFFSET 0.000000 0.000000 0.000000
									CHANNELS 3 Zrotation Yrotation Xrotation
									JOINT RightHandIndex1
									{
										OFFSET -0.622530 -0.000000 -0.000000
										CHANNELS 3 Zrotation Yrotation Xrotation
										End Site
										{
											OFFSET 0.000000 0.000000 0.000000
										}
									}
								}
								JOINT RThumb
								{
									OFFSET 0.000000 0.000000 0.000000
									CHANNELS 3 Zrotation Yrotation Xrotation
									End Site
									{
										OFFSET 0.000000 0.000000 0.000000
									}
								}
							}
						}
					}
				}
			}
		}
	}
}
MOTION
Frames: 4
Frame Time: 0.008333
0.158226 17.890489 0.122250 -0.959308 1.847677 -1.468326 4.474729 3.496276 1.399131 -18.823911 -12.316588 4.028052 -1.325756 3.199252 12.850539 -1.689555 8.195153 -1.157657 0.422700 -4.172700 -11.563200 -4.913729 -2.885746 0.656897 23.247733 10.005900 4.764561 -0.035952 -4.609926 14.931550 1.561897 -9.626116 -6.319663 -0.110900 2.146700 -5.911400 -0.016733 1.316811 5.952624 1.243451 1.631656 4.214192 -0.806404 1.078920 -5.470446 -14.257041 -8.380707 -12.439899 -2.775719 -9.134555 38.406053 -0.188600 -6.366100 18.233600 -4.288287 -5.868230 1.826817 -82.266012 1.055179 53.617629 18.422375 -22.979781 -3.306697 0.219883 1.230459 -4.337735 6.506466 17.361858 1.730200 -7.125000 0.000000 0.000000 -19.963900 45.231800 -0.119100 4.393621 5.131732 0.491769 40.910701 40.908790 32.685315 -61.394419 54.160547 -30.642142 -0.788268 1.349145 39.397136 -18.036720 18.324652 -5.228500 7.125000 0.000000 0.000000 7.521100 -11.460400 5.929400 
0.156782 17.888934 0.121917 -1.067240 1.871056 -1.489658 4.473838 3.496549 1.401796 -18.698330 -12.311552 3.931029 -1.305809 3.257364 13.006537 -1.667913 8.099702 -1.167338 0.425300 -4.185500 -11.599300 -4.913407 -2.885208 0.654618 23.371589 9.957575 4.833414 -0.024881 -4.572160 14.827958 1.576246 -9.688046 -6.262932 -0.114600 2.182300 -6.009800 0.080086 1.324500 5.972248 1.274684 1.651489 4.205487 -0.834700 1.085410 -5.490179 -14.234277 -8.389911 -12.440260 -2.826815 -9.136640 38.414578 -0.216900 -6.369700 18.229900 -4.286443 -5.865543 1.824723 -82.274235 1.034229 53.585015 18.408702 -22.962515 -3.300073 0.209661 1.219941 -4.452445 6.351233 17.236594 1.677200 -7.125000 0.000000 0.000000 -20.050400 45.106200 -0.054800 4.390403 5.125839 0.498876 41.332276 41.053719 34.183099 -61.061763 53.999382 -30.358500 -0.784647 1.342815 39.484261 -17.804601 18.242070 -5.131300 7.125000 0.000000 0.000000 7.666800 -11.567500 6.029300 
0.155561 17.888934 0.121695 -1.139556 1.867954 -1.505428 4.473103 3.496812 1.403148 -18.614262 -12.304026 3.863369 -1.292800 3.295535 13.107872 -1.656540 8.049981 -1.174148 0.437000 -4.242200 -11.758900 -4.913170 -2.884250 0.653060 23.454375 9.927858 4.877733 -0.018064 -4.548223 14.763680 1.576772 -9.687346 -6.240814 -0.114100 2.177800 -5.997300 0.144259 1.354969 5.982007 1.300698 1.698722 4.209791 -0.853713 1.106274 -5.489821 -14.225621 -8.407583 -12.465304 -2.844321 -9.155516 38.437200 -0.232300 -6.377400 18.248100 -4.285750 -5.861768 1.820619 -82.319173 0.993148 53.477786 18.391062 -22.938385 -3.292275 0.207296 1.219225 -4.435146 6.309659 17.243502 1.667100 -7.125000 0.000000 0.000000 -20.087400 45.108500 -0.056100 4.388223 5.118276 0.511997 41.741376 41.139220 35.588407 -60.739369 53.846893 -30.086643 -0.793877 1.340849 39.744347 -17.944737 18.119554 -5.144900 7.125000 0.000000 0.000000 7.576500 -11.662600 5.942000 
0.154339 17.888823 0.122583 -1.212721 1.857713 -1.528525 4.473502 3.501424 1.405217 -18.534029 -12.311911 3.871891 -1.288269 3.304328 13.136559 -1.659768 8.059745 -1.173262 0.432900 -4.222500 -11.703400 -4.913761 -2.883191 0.652628 23.543566 9.926120 4.926305 -0.015762 -4.541206 14.747311 1.568173 -9.651261 -6.287677 -0.101900 2.058900 -5.668400 0.214886 1.381503 5.951720 1.325634 1.741778 4.248465 -0.875834 1.124862 -5.430986 -14.242550 -8.425981 -12.484822 -2.816326 -9.184084 38.401539 -0.219600 -6.386100 18.236600 -4.285276 -5.858866 1.818079 -82.360974 0.911134 53.334125 18.371968 -22.910489 -3.284940 0.224804 1.233274 -4.280663 6.568064 17.393830 1.749500 -7.125000 0.000000 0.000000 -19.923800 45.266300 -0.136500 4.386650 5.111539 0.521659 42.138609 41.254725 36.965671 -60.436418 53.703768 -29.838161 -0.802237 1.354998 39.867353 -18.149185 18.317745 -5.263400 7.125000 0.000000 0.000000 7.460000 -11.436300 5.884100 
